{
  "accessors": [
    {
      "bufferView": 2,
      "componentType": 5126,
      "count": 20468,
      "max": [
        0.0544193834066391,
        0.4689520001411438,
        0.3671150803565979
      ],
      "min": [
        -0.057564206421375275,
        -0.4741114377975464,
        -0.36277535557746887
      ],
      "type": "VEC3"
    },
    {
      "bufferView": 2,
      "byteOffset": 245616,
      "componentType": 5126,
      "count": 20468,
      "type": "VEC3"
    },
    {
      "bufferView": 3,
      "componentType": 5126,
      "count": 20468,
      "type": "VEC4"
    },
    {
      "bufferView": 1,
      "componentType": 5126,
      "count": 20468,
      "type": "VEC2"
    },
    {
      "bufferView": 1,
      "byteOffset": 163744,
      "componentType": 5126,
      "count": 20468,
      "type": "VEC2"
    },
    {
      "bufferView": 0,
      "componentType": 5125,
      "count": 20517,
      "type": "SCALAR"
    }
  ],
  "asset": {
    "generator": "fab-model-conversion",
    "version": "2.0"
  },
  "bufferViews": [
    {
      "buffer": 0,
      "byteLength": 82068,
      "target": 34963
    },
    {
      "buffer": 0,
      "byteLength": 327488,
      "byteOffset": 82068,
      "byteStride": 8,
      "target": 34962
    },
    {
      "buffer": 0,
      "byteLength": 491232,
      "byteOffset": 409556,
      "byteStride": 12,
      "target": 34962
    },
    {
      "buffer": 0,
      "byteLength": 327488,
      "byteOffset": 900788,
      "byteStride": 16,
      "target": 34962
    }
  ],
  "buffers": [
    {
      "byteLength": 1228276,
      "uri": "scene.bin"
    }
  ],
  "images": [
    {
      "uri": "textures/tripo_mat_59651e0b-de06-4188-8101-87292d39d980_BaseColor.jpeg"
    },
    {
      "uri": "textures/tripo_mat_59651e0b-de06-4188-8101-87292d39d980_ORM.jpeg"
    },
    {
      "uri": "textures/tripo_mat_59651e0b-de06-4188-8101-87292d39d980_Normal.jpeg"
    }
  ],
  "materials": [
    {
      "doubleSided": true,
      "name": "tripo_mat_59651e0b-de06-4188-8101-87292d39d980",
      "normalTexture": {
        "index": 2
      },
      "pbrMetallicRoughness": {
        "baseColorTexture": {
          "index": 0
        },
        "metallicRoughnessTexture": {
          "index": 1
        }
      }
    }
  ],
  "meshes": [
    {
      "name": "Object_0",
      "primitives": [
        {
          "attributes": {
            "NORMAL": 1,
            "POSITION": 0,
            "TANGENT": 2,
            "TEXCOORD_0": 3,
            "TEXCOORD_1": 4
          },
          "indices": 5,
          "material": 0,
          "mode": 4
        }
      ]
    }
  ],
  "nodes": [
    {
      "children": [
        1
      ],
      "matrix": [
        1.0,
        0.0,
        0.0,
        0.0,
        0.0,
        2.220446049250313e-16,
        -1.0,
        0.0,
        0.0,
        1.0,
        2.220446049250313e-16,
        0.0,
        0.0,
        0.0,
        0.0,
        1.0
      ],
      "name": "FAB converted model"
    },
    {
      "children": [
        2
      ],
      "name": "root"
    },
    {
      "children": [
        3
      ],
      "matrix": [
        1.0,
        0.0,
        0.0,
        0.0,
        0.0,
        2.220446049250313e-16,
        1.0,
        0.0,
        0.0,
        -1.0,
        2.220446049250313e-16,
        0.0,
        0.0,
        0.0,
        0.0,
        1.0
      ],
      "name": "GLTF_SceneRootNode"
    },
    {
      "children": [
        4
      ],
      "name": "tripo_node_59651e0b-de06-4188-8101-87292d39d980_0"
    },
    {
      "mesh": 0,
      "name": "Object_4"
    }
  ],
  "samplers": [
    {
      "magFilter": 9729,
      "minFilter": 9987,
      "wrapS": 10497,
      "wrapT": 10497
    }
  ],
  "scene": 0,
  "scenes": [
    {
      "name": "FAB converted",
      "nodes": [
        0
      ]
    }
  ],
  "textures": [
    {
      "sampler": 0,
      "source": 0
    },
    {
      "sampler": 0,
      "source": 1
    },
    {
      "sampler": 0,
      "source": 2
    }
  ]
}
